<svg width="48" height="48" viewBox="0 0 48 48" fill="none" xmlns="http://www.w3.org/2000/svg">
<path fill-rule="evenodd" clip-rule="evenodd" d="M0 24C0 10.7452 10.7452 0 24 0C37.2548 0 48 10.7452 48 24C48 37.2548 37.2548 48 24 48C10.7452 48 0 37.2548 0 24ZM20.1405 17.5369L12.4565 13.7404C12.3907 13.7079 12.328 13.6925 12.2714 13.6925C12.1908 13.6925 12.1225 13.7239 12.0745 13.7811C12.0275 13.837 12 13.9179 12 14.0191V30.3176C12 30.595 12.2054 30.9234 12.4565 31.0474L19.5574 34.5559C19.656 34.6046 19.75 34.6277 19.8349 34.6277C20.0742 34.6277 20.242 34.4448 20.242 34.1377V17.6994C20.242 17.6306 20.2027 17.5677 20.1405 17.5369ZM36.0407 34.5505L29.1406 31.1413L36.7253 18.962V34.1323C36.7253 34.5484 36.4173 34.7365 36.0407 34.5505ZM20.9705 18.7568V27.1096L28.4842 30.8219L20.9705 18.7568ZM28.7123 13.6276L36.5447 17.4975C36.6423 17.5457 36.677 17.6661 36.6199 17.7579L28.9118 30.1352L23.5228 21.4816L28.3504 13.7296C28.4017 13.6473 28.4965 13.6 28.5918 13.6C28.5943 13.6 28.5968 13.6008 28.5994 13.6008C28.6381 13.6019 28.6768 13.61 28.7123 13.6276Z" fill="black"/>
</svg>
